<svg width="78" height="59" viewBox="0 0 78 59" fill="none" xmlns="http://www.w3.org/2000/svg">
<path d="M78.0002 54.4617H0.120749V59.0002H78.0002V54.4617Z" fill="#D93654"/>
<path d="M78.0002 54.4617H0.120749V59.0002H78.0002V54.4617Z" fill="#D93654"/>
<path d="M78.0002 45.385H0.120749V49.9234H78.0002V45.385Z" fill="#D93654"/>
<path d="M78.0002 36.3074H0.120749V40.8459H78.0002V36.3074Z" fill="#D93654"/>
<path d="M78.0002 27.2307H0.120749V31.7691H78.0002V27.2307Z" fill="#D93654"/>
<path d="M78.0002 18.154H0.120749V22.6924H78.0002V18.154Z" fill="#D93654"/>
<path d="M78.0002 9.07698H0.120749V13.6154H78.0002V9.07698Z" fill="#D93654"/>
<path d="M78.0002 0H0.120749V4.53845H78.0002V0Z" fill="#D93654"/>
<path d="M37.5 0H0V32H37.5V0Z" fill="#1D2840"/>
<path d="M35.5564 2.93129L35.3908 4.28406L34.7342 3.11335L33.4771 3.36338L34.3178 2.33537L33.7065 1.13703L34.8826 1.67245L35.7619 0.681824L35.6481 2.04074L36.8029 2.62685L35.5564 2.93129Z" fill="white"/>
<path d="M28.5671 2.93129L28.4015 4.28406L27.7449 3.11335L26.4878 3.36338L27.3285 2.33537L26.7172 1.13703L27.8934 1.67245L28.7727 0.681824L28.6589 2.04074L29.8136 2.62685L28.5671 2.93129Z" fill="white"/>
<path d="M25.0918 6.33647L24.9262 7.68924L24.2696 6.51853L23.0125 6.76856L23.8532 5.74055L23.2419 4.54221L24.418 5.07763L25.2973 4.08701L25.1835 5.44592L26.3383 6.03203L25.0918 6.33647Z" fill="white"/>
<path d="M19.2788 6.33647L19.1132 7.68924L18.4566 6.51853L17.1995 6.76856L18.0402 5.74055L17.4289 4.54221L18.6051 5.07763L19.4844 4.08701L19.3706 5.44592L20.5253 6.03203L19.2788 6.33647Z" fill="white"/>
<path d="M22.2042 2.93129L22.0386 4.28406L21.382 3.11335L20.1249 3.36338L20.9656 2.33537L20.3543 1.13703L21.5305 1.67245L22.4098 0.681824L22.296 2.04074L23.4507 2.62685L22.2042 2.93129Z" fill="white"/>
<path d="M32.1748 6.33647L32.0092 7.68924L31.3526 6.51853L30.0955 6.76856L30.9362 5.74055L30.3249 4.54221L31.5011 5.07763L32.3804 4.08701L32.2666 5.44592L33.4213 6.03203L32.1748 6.33647Z" fill="white"/>
<path d="M16.4314 2.93129L16.2658 4.28406L15.6092 3.11335L14.3521 3.36338L15.1929 2.33537L14.5815 1.13703L15.7577 1.67245L16.637 0.681824L16.5232 2.04074L17.6779 2.62685L16.4314 2.93129Z" fill="white"/>
<path d="M9.44219 2.93129L9.27658 4.28406L8.61997 3.11335L7.36285 3.36338L8.20361 2.33537L7.59227 1.13703L8.76845 1.67245L9.64775 0.681824L9.53395 2.04074L10.6887 2.62685L9.44219 2.93129Z" fill="white"/>
<path d="M5.96709 6.33647L5.80148 7.68924L5.14487 6.51853L3.88776 6.76856L4.72851 5.74055L4.11718 4.54221L5.29335 5.07763L6.17265 4.08701L6.05885 5.44592L7.21357 6.03203L5.96709 6.33647Z" fill="white"/>
<path d="M3.07933 2.93129L2.91372 4.28406L2.25712 3.11335L1 3.36338L1.84076 2.33537L1.22942 1.13703L2.4056 1.67245L3.28489 0.681824L3.1711 2.04074L4.32581 2.62685L3.07933 2.93129Z" fill="white"/>
<path d="M13.0506 6.33647L12.885 7.68924L12.2284 6.51853L10.9713 6.76856L11.8121 5.74055L11.2007 4.54221L12.3769 5.07763L13.2562 4.08701L13.1424 5.44592L14.2971 6.03203L13.0506 6.33647Z" fill="white"/>
<path d="M35.5564 9.49007L35.3908 10.8428L34.7342 9.67213L33.4771 9.92216L34.3178 8.89414L33.7065 7.69581L34.8826 8.23122L35.7619 7.2406L35.6481 8.59952L36.8029 9.18562L35.5564 9.49007Z" fill="white"/>
<path d="M28.5671 9.49007L28.4015 10.8428L27.7449 9.67213L26.4878 9.92216L27.3285 8.89414L26.7172 7.69581L27.8934 8.23122L28.7727 7.2406L28.6589 8.59952L29.8136 9.18562L28.5671 9.49007Z" fill="white"/>
<path d="M25.0918 12.8951L24.9262 14.2479L24.2696 13.0772L23.0125 13.3272L23.8532 12.2992L23.2419 11.1008L24.418 11.6363L25.2973 10.6456L25.1835 12.0045L26.3383 12.5907L25.0918 12.8951Z" fill="white"/>
<path d="M19.2788 12.8951L19.1132 14.2479L18.4566 13.0772L17.1995 13.3272L18.0402 12.2992L17.4289 11.1008L18.6051 11.6363L19.4844 10.6456L19.3706 12.0045L20.5253 12.5907L19.2788 12.8951Z" fill="white"/>
<path d="M22.2042 9.49007L22.0386 10.8428L21.382 9.67213L20.1249 9.92216L20.9656 8.89414L20.3543 7.69581L21.5305 8.23122L22.4098 7.2406L22.296 8.59952L23.4507 9.18562L22.2042 9.49007Z" fill="white"/>
<path d="M32.1748 12.8951L32.0092 14.2479L31.3526 13.0772L30.0955 13.3272L30.9362 12.2992L30.3249 11.1008L31.5011 11.6363L32.3804 10.6456L32.2666 12.0045L33.4213 12.5907L32.1748 12.8951Z" fill="white"/>
<path d="M16.4314 9.49007L16.2658 10.8428L15.6092 9.67213L14.3521 9.92216L15.1929 8.89414L14.5815 7.69581L15.7577 8.23122L16.637 7.2406L16.5232 8.59952L17.6779 9.18562L16.4314 9.49007Z" fill="white"/>
<path d="M9.44219 9.49007L9.27658 10.8428L8.61997 9.67213L7.36285 9.92216L8.20361 8.89414L7.59227 7.69581L8.76845 8.23122L9.64775 7.2406L9.53395 8.59952L10.6887 9.18562L9.44219 9.49007Z" fill="white"/>
<path d="M5.96709 12.8951L5.80148 14.2479L5.14487 13.0772L3.88776 13.3272L4.72851 12.2992L4.11718 11.1008L5.29335 11.6363L6.17265 10.6456L6.05885 12.0045L7.21357 12.5907L5.96709 12.8951Z" fill="white"/>
<path d="M3.07933 9.49007L2.91372 10.8428L2.25712 9.67213L1 9.92216L1.84076 8.89414L1.22942 7.69581L2.4056 8.23122L3.28489 7.2406L3.1711 8.59952L4.32581 9.18562L3.07933 9.49007Z" fill="white"/>
<path d="M13.0506 12.8951L12.885 14.2479L12.2284 13.0772L10.9713 13.3272L11.8121 12.2992L11.2007 11.1008L12.3769 11.6363L13.2562 10.6456L13.1424 12.0045L14.2971 12.5907L13.0506 12.8951Z" fill="white"/>
<path d="M35.5564 16.2307L35.3908 17.5835L34.7342 16.4128L33.4771 16.6628L34.3178 15.6348L33.7065 14.4365L34.8826 14.9719L35.7619 13.9813L35.6481 15.3402L36.8029 15.9263L35.5564 16.2307Z" fill="white"/>
<path d="M28.5671 16.2307L28.4015 17.5835L27.7449 16.4128L26.4878 16.6628L27.3285 15.6348L26.7172 14.4365L27.8934 14.9719L28.7727 13.9813L28.6589 15.3402L29.8136 15.9263L28.5671 16.2307Z" fill="white"/>
<path d="M25.0918 19.6358L24.9262 20.9885L24.2696 19.8178L23.0125 20.0678L23.8532 19.0398L23.2419 17.8415L24.418 18.3769L25.2973 17.3863L25.1835 18.7452L26.3383 19.3313L25.0918 19.6358Z" fill="white"/>
<path d="M19.2788 19.6358L19.1132 20.9885L18.4566 19.8178L17.1995 20.0678L18.0402 19.0398L17.4289 17.8415L18.6051 18.3769L19.4844 17.3863L19.3706 18.7452L20.5253 19.3313L19.2788 19.6358Z" fill="white"/>
<path d="M22.2042 16.2307L22.0386 17.5835L21.382 16.4128L20.1249 16.6628L20.9656 15.6348L20.3543 14.4365L21.5305 14.9719L22.4098 13.9813L22.296 15.3402L23.4507 15.9263L22.2042 16.2307Z" fill="white"/>
<path d="M32.1748 19.6358L32.0092 20.9885L31.3526 19.8178L30.0955 20.0678L30.9362 19.0398L30.3249 17.8415L31.5011 18.3769L32.3804 17.3863L32.2666 18.7452L33.4213 19.3313L32.1748 19.6358Z" fill="white"/>
<path d="M16.4314 16.2307L16.2658 17.5835L15.6092 16.4128L14.3521 16.6628L15.1929 15.6348L14.5815 14.4365L15.7577 14.9719L16.637 13.9813L16.5232 15.3402L17.6779 15.9263L16.4314 16.2307Z" fill="white"/>
<path d="M9.44219 16.2307L9.27658 17.5835L8.61997 16.4128L7.36285 16.6628L8.20361 15.6348L7.59227 14.4365L8.76845 14.9719L9.64775 13.9813L9.53395 15.3402L10.6887 15.9263L9.44219 16.2307Z" fill="white"/>
<path d="M5.96709 19.6358L5.80148 20.9885L5.14487 19.8178L3.88776 20.0678L4.72851 19.0398L4.11718 17.8415L5.29335 18.3769L6.17265 17.3863L6.05885 18.7452L7.21357 19.3313L5.96709 19.6358Z" fill="white"/>
<path d="M3.07933 16.2307L2.91372 17.5835L2.25712 16.4128L1 16.6628L1.84076 15.6348L1.22942 14.4365L2.4056 14.9719L3.28489 13.9813L3.1711 15.3402L4.32581 15.9263L3.07933 16.2307Z" fill="white"/>
<path d="M13.0506 19.6358L12.885 20.9885L12.2284 19.8178L10.9713 20.0678L11.8121 19.0398L11.2007 17.8415L12.3769 18.3769L13.2562 17.3863L13.1424 18.7452L14.2971 19.3313L13.0506 19.6358Z" fill="white"/>
<path d="M35.5564 22.9714L35.3908 24.3242L34.7342 23.1535L33.4771 23.4035L34.3178 22.3755L33.7065 21.1771L34.8826 21.7125L35.7619 20.7219L35.6481 22.0808L36.8029 22.6669L35.5564 22.9714Z" fill="white"/>
<path d="M28.5671 22.9714L28.4015 24.3242L27.7449 23.1535L26.4878 23.4035L27.3285 22.3755L26.7172 21.1771L27.8934 21.7125L28.7727 20.7219L28.6589 22.0808L29.8136 22.6669L28.5671 22.9714Z" fill="white"/>
<path d="M25.0918 26.3764L24.9262 27.7292L24.2696 26.5585L23.0125 26.8085L23.8532 25.7805L23.2419 24.5822L24.418 25.1176L25.2973 24.127L25.1835 25.4859L26.3383 26.072L25.0918 26.3764Z" fill="white"/>
<path d="M19.2788 26.3764L19.1132 27.7292L18.4566 26.5585L17.1995 26.8085L18.0402 25.7805L17.4289 24.5822L18.6051 25.1176L19.4844 24.127L19.3706 25.4859L20.5253 26.072L19.2788 26.3764Z" fill="white"/>
<path d="M22.2042 22.9714L22.0386 24.3242L21.382 23.1535L20.1249 23.4035L20.9656 22.3755L20.3543 21.1771L21.5305 21.7125L22.4098 20.7219L22.296 22.0808L23.4507 22.6669L22.2042 22.9714Z" fill="white"/>
<path d="M32.1748 26.3764L32.0092 27.7292L31.3526 26.5585L30.0955 26.8085L30.9362 25.7805L30.3249 24.5822L31.5011 25.1176L32.3804 24.127L32.2666 25.4859L33.4213 26.072L32.1748 26.3764Z" fill="white"/>
<path d="M16.4314 22.9714L16.2658 24.3242L15.6092 23.1535L14.3521 23.4035L15.1929 22.3755L14.5815 21.1771L15.7577 21.7125L16.637 20.7219L16.5232 22.0808L17.6779 22.6669L16.4314 22.9714Z" fill="white"/>
<path d="M9.44219 22.9714L9.27658 24.3242L8.61997 23.1535L7.36285 23.4035L8.20361 22.3755L7.59227 21.1771L8.76845 21.7125L9.64775 20.7219L9.53395 22.0808L10.6887 22.6669L9.44219 22.9714Z" fill="white"/>
<path d="M5.96709 26.3764L5.80148 27.7292L5.14487 26.5585L3.88776 26.8085L4.72851 25.7805L4.11718 24.5822L5.29335 25.1176L6.17265 24.127L6.05885 25.4859L7.21357 26.072L5.96709 26.3764Z" fill="white"/>
<path d="M3.07933 22.9714L2.91372 24.3242L2.25712 23.1535L1 23.4035L1.84076 22.3755L1.22942 21.1771L2.4056 21.7125L3.28489 20.7219L3.1711 22.0808L4.32581 22.6669L3.07933 22.9714Z" fill="white"/>
<path d="M13.0506 26.3764L12.885 27.7292L12.2284 26.5585L10.9713 26.8085L11.8121 25.7805L11.2007 24.5822L12.3769 25.1176L13.2562 24.127L13.1424 25.4859L14.2971 26.072L13.0506 26.3764Z" fill="white"/>
<path d="M35.5564 29.5293L35.3908 30.882L34.7342 29.7113L33.4771 29.9613L34.3178 28.9333L33.7065 27.735L34.8826 28.2704L35.7619 27.2798L35.6481 28.6387L36.8029 29.2248L35.5564 29.5293Z" fill="white"/>
<path d="M28.5671 29.5293L28.4015 30.882L27.7449 29.7113L26.4878 29.9613L27.3285 28.9333L26.7172 27.735L27.8934 28.2704L28.7727 27.2798L28.6589 28.6387L29.8136 29.2248L28.5671 29.5293Z" fill="white"/>
<path d="M22.2042 29.5293L22.0386 30.882L21.382 29.7113L20.1249 29.9613L20.9656 28.9333L20.3543 27.735L21.5305 28.2704L22.4098 27.2798L22.296 28.6387L23.4507 29.2248L22.2042 29.5293Z" fill="white"/>
<path d="M16.4314 29.5293L16.2658 30.882L15.6092 29.7113L14.3521 29.9613L15.1929 28.9333L14.5815 27.735L15.7577 28.2704L16.637 27.2798L16.5232 28.6387L17.6779 29.2248L16.4314 29.5293Z" fill="white"/>
<path d="M9.44219 29.5293L9.27658 30.882L8.61997 29.7113L7.36285 29.9613L8.20361 28.9333L7.59227 27.735L8.76845 28.2704L9.64775 27.2798L9.53395 28.6387L10.6887 29.2248L9.44219 29.5293Z" fill="white"/>
<path d="M3.07933 29.5293L2.91372 30.882L2.25712 29.7113L1 29.9613L1.84076 28.9333L1.22942 27.735L2.4056 28.2704L3.28489 27.2798L3.1711 28.6387L4.32581 29.2248L3.07933 29.5293Z" fill="white"/>
</svg>
